<svg xmlns="http://www.w3.org/2000/svg" width="250" height="150"><path d="M131,77L118,61L115,80Z" fill="#84878c" stroke="#84878c" stroke-width="1.51"/><path d="M131,77L127,52L118,61Z" fill="#787b80" stroke="#787b80" stroke-width="1.51"/><path d="M115,80L114,96L131,77Z" fill="#999ca0" stroke="#999ca0" stroke-width="1.51"/><path d="M131,77L150,69L127,52Z" fill="#888c90" stroke="#888c90" stroke-width="1.51"/><path d="M136,99L150,69L131,77Z" fill="#a9acb0" stroke="#a9acb0" stroke-width="1.51"/><path d="M118,61L95,57L115,80Z" fill="#6c6f74" stroke="#6c6f74" stroke-width="1.51"/><path d="M115,80L91,96L114,96Z" fill="#95999d" stroke="#95999d" stroke-width="1.51"/><path d="M96,41L95,57L118,61Z" fill="#4e5258" stroke="#4e5258" stroke-width="1.51"/><path d="M114,96L136,99L131,77Z" fill="#adb0b3" stroke="#adb0b3" stroke-width="1.51"/><path d="M127,52L120,39L118,61Z" fill="#5d6167" stroke="#5d6167" stroke-width="1.51"/><path d="M130,32L120,39L127,52Z" fill="#616a71" stroke="#616a71" stroke-width="1.51"/><path d="M95,57L88,80L115,80Z" fill="#6c6f75" stroke="#6c6f75" stroke-width="1.51"/><path d="M150,69L148,48L127,52Z" fill="#7d8085" stroke="#7d8085" stroke-width="1.51"/><path d="M88,80L91,96L115,80Z" fill="#82858a" stroke="#82858a" stroke-width="1.51"/><path d="M120,116L135,112L136,99Z" fill="#c5c7c9" stroke="#c5c7c9" stroke-width="1.51"/><path d="M95,57L81,77L88,80Z" fill="#5e6268" stroke="#5e6268" stroke-width="1.51"/><path d="M120,39L96,41L118,61Z" fill="#52575e" stroke="#52575e" stroke-width="1.51"/><path d="M148,48L130,32L127,52Z" fill="#6b7178" stroke="#6b7178" stroke-width="1.51"/><path d="M120,39L112,9L96,41Z" fill="#526069" stroke="#526069" stroke-width="1.51"/><path d="M88,80L68,95L91,96Z" fill="#7b7f84" stroke="#7b7f84" stroke-width="1.51"/><path d="M78,53L81,77L95,57Z" fill="#4c5056" stroke="#4c5056" stroke-width="1.51"/><path d="M136,99L160,100L150,69Z" fill="#c4c6c9" stroke="#c4c6c9" stroke-width="1.51"/><path d="M120,116L136,99L114,96Z" fill="#bbbec1" stroke="#bbbec1" stroke-width="1.51"/><path d="M92,119L120,116L114,96Z" fill="#abaeb1" stroke="#abaeb1" stroke-width="1.51"/><path d="M135,112L149,109L136,99Z" fill="#d0d2d4" stroke="#d0d2d4" stroke-width="1.51"/><path d="M150,129L149,109L135,112Z" fill="#d7d9db" stroke="#d7d9db" stroke-width="1.51"/><path d="M96,41L78,53L95,57Z" fill="#3c4047" stroke="#3c4047" stroke-width="1.51"/><path d="M149,109L160,100L136,99Z" fill="#d9dbdd" stroke="#d9dbdd" stroke-width="1.51"/><path d="M176,51L159,40L148,48Z" fill="#878c91" stroke="#878c91" stroke-width="1.51"/><path d="M148,48L159,40L130,32Z" fill="#778086" stroke="#778086" stroke-width="1.51"/><path d="M176,51L148,48L150,69Z" fill="#8f9196" stroke="#8f9196" stroke-width="1.51"/><path d="M160,100L176,71L150,69Z" fill="#c1c4c7" stroke="#c1c4c7" stroke-width="1.51"/><path d="M91,96L92,119L114,96Z" fill="#9fa2a6" stroke="#9fa2a6" stroke-width="1.51"/><path d="M74,118L92,119L91,96Z" fill="#919498" stroke="#919498" stroke-width="1.51"/><path d="M176,71L176,51L150,69Z" fill="#a7a9ad" stroke="#a7a9ad" stroke-width="1.51"/><path d="M81,77L68,95L88,80Z" fill="#70757b" stroke="#70757b" stroke-width="1.51"/><path d="M55,90L68,95L81,77Z" fill="#777f86" stroke="#777f86" stroke-width="1.51"/><path d="M78,53L51,69L81,77Z" fill="#525a61" stroke="#525a61" stroke-width="1.51"/><path d="M96,41L78,30L78,53Z" fill="#373f47" stroke="#373f47" stroke-width="1.51"/><path d="M95,11L78,30L96,41Z" fill="#3e4e57" stroke="#3e4e57" stroke-width="1.51"/><path d="M153,12L131,8L130,32Z" fill="#718790" stroke="#718790" stroke-width="1.51"/><path d="M130,32L112,9L120,39Z" fill="#5e6e77" stroke="#5e6e77" stroke-width="1.51"/><path d="M176,51L170,31L159,40Z" fill="#8f969c" stroke="#8f969c" stroke-width="1.51"/><path d="M131,8L112,9L130,32Z" fill="#637982" stroke="#637982" stroke-width="1.51"/><path d="M92,119L109,134L120,116Z" fill="#abadb1" stroke="#abadb1" stroke-width="1.51"/><path d="M131,140L150,129L135,112Z" fill="#d1d3d5" stroke="#d1d3d5" stroke-width="1.51"/><path d="M153,12L130,32L159,40Z" fill="#7a8a92" stroke="#7a8a92" stroke-width="1.51"/><path d="M149,109L172,118L160,100Z" fill="#e8ebeb" stroke="#e8ebeb" stroke-width="1.51"/><path d="M160,100L181,99L176,71Z" fill="#dbdddf" stroke="#dbdddf" stroke-width="1.51"/><path d="M131,140L135,112L120,116Z" fill="#c4c6c9" stroke="#c4c6c9" stroke-width="1.51"/><path d="M68,134L98,132L92,119Z" fill="#94979b" stroke="#94979b" stroke-width="1.51"/><path d="M92,119L98,132L109,134Z" fill="#a3a6a9" stroke="#a3a6a9" stroke-width="1.51"/><path d="M172,118L181,99L160,100Z" fill="#f1f2f3" stroke="#f1f2f3" stroke-width="1.51"/><path d="M176,71L188,60L176,51Z" fill="#a2a5a9" stroke="#a2a5a9" stroke-width="1.51"/><path d="M112,9L95,11L96,41Z" fill="#4a5e67" stroke="#4a5e67" stroke-width="1.51"/><path d="M68,95L74,118L91,96Z" fill="#8e9398" stroke="#8e9398" stroke-width="1.51"/><path d="M170,31L153,12L159,40Z" fill="#8999a0" stroke="#8999a0" stroke-width="1.51"/><path d="M176,51L192,35L170,31Z" fill="#90989f" stroke="#90989f" stroke-width="1.51"/><path d="M200,72L188,60L176,71Z" fill="#b0b3b6" stroke="#b0b3b6" stroke-width="1.51"/><path d="M78,30L57,50L78,53Z" fill="#37424a" stroke="#37424a" stroke-width="1.51"/><path d="M49,28L57,50L78,30Z" fill="#384a54" stroke="#384a54" stroke-width="1.51"/><path d="M150,129L172,118L149,109Z" fill="#e6e8e9" stroke="#e6e8e9" stroke-width="1.51"/><path d="M51,69L55,90L81,77Z" fill="#687279" stroke="#687279" stroke-width="1.51"/><path d="M68,95L57,115L74,118Z" fill="#90989d" stroke="#90989d" stroke-width="1.51"/><path d="M116,152L131,140L109,134Z" fill="#bcbec0" stroke="#bcbec0" stroke-width="1.51"/><path d="M109,134L131,140L120,116Z" fill="#bcbdc0" stroke="#bcbdc0" stroke-width="1.51"/><path d="M150,129L170,128L172,118Z" fill="#eff1f2" stroke="#eff1f2" stroke-width="1.51"/><path d="M112,9L95,-8L95,11Z" fill="#4a6874" stroke="#4a6874" stroke-width="1.51"/><path d="M131,8L128,1L112,9Z" fill="#627f8b" stroke="#627f8b" stroke-width="1.51"/><path d="M147,-9L128,1L131,8Z" fill="#6f909b" stroke="#6f909b" stroke-width="1.51"/><path d="M57,50L51,69L78,53Z" fill="#434e55" stroke="#434e55" stroke-width="1.51"/><path d="M198,122L201,97L181,99Z" fill="#f2f4f5" stroke="#f2f4f5" stroke-width="1.51"/><path d="M151,157L170,128L150,129Z" fill="#e9ebec" stroke="#e9ebec" stroke-width="1.51"/><path d="M95,11L76,9L78,30Z" fill="#384e59" stroke="#384e59" stroke-width="1.51"/><path d="M95,-8L76,9L95,11Z" fill="#3d5c68" stroke="#3d5c68" stroke-width="1.51"/><path d="M55,90L57,115L68,95Z" fill="#8f9aa0" stroke="#8f9aa0" stroke-width="1.51"/><path d="M74,118L68,134L92,119Z" fill="#91959a" stroke="#91959a" stroke-width="1.51"/><path d="M40,109L57,115L55,90Z" fill="#909ea5" stroke="#909ea5" stroke-width="1.51"/><path d="M201,97L200,72L181,99Z" fill="#dcdedf" stroke="#dcdedf" stroke-width="1.51"/><path d="M181,99L200,72L176,71Z" fill="#caccce" stroke="#caccce" stroke-width="1.51"/><path d="M188,60L192,35L176,51Z" fill="#8f9397" stroke="#8f9397" stroke-width="1.51"/><path d="M170,31L179,15L153,12Z" fill="#91a6ae" stroke="#91a6ae" stroke-width="1.51"/><path d="M211,59L192,35L188,60Z" fill="#929599" stroke="#929599" stroke-width="1.51"/><path d="M192,35L179,15L170,31Z" fill="#92a1a8" stroke="#92a1a8" stroke-width="1.51"/><path d="M153,12L147,-9L131,8Z" fill="#7996a1" stroke="#7996a1" stroke-width="1.51"/><path d="M131,140L151,157L150,129Z" fill="#dadcdd" stroke="#dadcdd" stroke-width="1.51"/><path d="M99,157L116,152L109,134Z" fill="#b0b2b5" stroke="#b0b2b5" stroke-width="1.51"/><path d="M99,157L109,134L98,132Z" fill="#a8aaae" stroke="#a8aaae" stroke-width="1.51"/><path d="M57,115L68,134L74,118Z" fill="#929a9f" stroke="#929a9f" stroke-width="1.51"/><path d="M198,122L181,99L172,118Z" fill="#f3f4f5" stroke="#f3f4f5" stroke-width="1.51"/><path d="M128,1L108,-11L112,9Z" fill="#5a7b87" stroke="#5a7b87" stroke-width="1.51"/><path d="M107,-20L108,-11L131,-32Z" fill="#5a7a86" stroke="#5a7a86" stroke-width="1.51"/><path d="M108,-11L95,-8L112,9Z" fill="#4f6f7b" stroke="#4f6f7b" stroke-width="1.51"/><path d="M175,-1L147,-9L153,12Z" fill="#8aa9b4" stroke="#8aa9b4" stroke-width="1.51"/><path d="M60,13L78,30L76,9Z" fill="#38525e" stroke="#38525e" stroke-width="1.51"/><path d="M60,13L49,28L78,30Z" fill="#38515d" stroke="#38515d" stroke-width="1.51"/><path d="M30,48L34,71L51,69Z" fill="#4d6069" stroke="#4d6069" stroke-width="1.51"/><path d="M68,-4L60,13L76,9Z" fill="#375b68" stroke="#375b68" stroke-width="1.51"/><path d="M116,152L130,156L131,140Z" fill="#c5c7c9" stroke="#c5c7c9" stroke-width="1.51"/><path d="M51,69L34,71L55,90Z" fill="#65757d" stroke="#65757d" stroke-width="1.51"/><path d="M30,48L51,69L57,50Z" fill="#41515a" stroke="#41515a" stroke-width="1.51"/><path d="M68,152L99,157L98,132Z" fill="#9a9c9f" stroke="#9a9c9f" stroke-width="1.51"/><path d="M116,152L118,175L130,156Z" fill="#c0c2c4" stroke="#c0c2c4" stroke-width="1.51"/><path d="M197,-5L175,-1L179,15Z" fill="#94b3bd" stroke="#94b3bd" stroke-width="1.51"/><path d="M179,15L175,-1L153,12Z" fill="#92adb6" stroke="#92adb6" stroke-width="1.51"/><path d="M29,90L40,109L55,90Z" fill="#899ba3" stroke="#899ba3" stroke-width="1.51"/><path d="M57,115L55,134L68,134Z" fill="#939da3" stroke="#939da3" stroke-width="1.51"/><path d="M214,68L211,59L200,72Z" fill="#afb2b5" stroke="#afb2b5" stroke-width="1.51"/><path d="M200,72L211,59L188,60Z" fill="#aaacaf" stroke="#aaacaf" stroke-width="1.51"/><path d="M192,35L202,10L179,15Z" fill="#94a7af" stroke="#94a7af" stroke-width="1.51"/><path d="M151,170L151,157L130,156Z" fill="#dbddde" stroke="#dbddde" stroke-width="1.51"/><path d="M130,156L151,157L131,140Z" fill="#d3d5d6" stroke="#d3d5d6" stroke-width="1.51"/><path d="M190,136L198,122L172,118Z" fill="#f5f6f7" stroke="#f5f6f7" stroke-width="1.51"/><path d="M33,129L55,134L57,115Z" fill="#94a2a9" stroke="#94a2a9" stroke-width="1.51"/><path d="M68,134L68,152L98,132Z" fill="#93979b" stroke="#93979b" stroke-width="1.51"/><path d="M190,136L172,118L170,128Z" fill="#f4f6f6" stroke="#f4f6f6" stroke-width="1.51"/><path d="M220,94L214,68L200,72Z" fill="#c7c8cb" stroke="#c7c8cb" stroke-width="1.51"/><path d="M49,28L38,33L57,50Z" fill="#384f5a" stroke="#384f5a" stroke-width="1.51"/><path d="M33,12L38,33L49,28Z" fill="#375a66" stroke="#375a66" stroke-width="1.51"/><path d="M220,94L200,72L201,97Z" fill="#dadcdd" stroke="#dadcdd" stroke-width="1.51"/><path d="M95,-8L68,-4L76,9Z" fill="#375a67" stroke="#375a67" stroke-width="1.51"/><path d="M60,13L33,12L49,28Z" fill="#375b68" stroke="#375b68" stroke-width="1.51"/><path d="M69,-20L68,-4L95,-8Z" fill="#375b68" stroke="#375b68" stroke-width="1.51"/><path d="M108,-11L107,-20L95,-8Z" fill="#4d6e7a" stroke="#4d6e7a" stroke-width="1.51"/><path d="M131,-32L108,-11L128,1Z" fill="#61828e" stroke="#61828e" stroke-width="1.51"/><path d="M171,159L190,136L170,128Z" fill="#f6f7f8" stroke="#f6f7f8" stroke-width="1.51"/><path d="M34,71L29,90L55,90Z" fill="#72848d" stroke="#72848d" stroke-width="1.51"/><path d="M13,88L29,90L34,71Z" fill="#728992" stroke="#728992" stroke-width="1.51"/><path d="M38,33L30,48L57,50Z" fill="#384d57" stroke="#384d57" stroke-width="1.51"/><path d="M68,-4L56,1L60,13Z" fill="#375f6d" stroke="#375f6d" stroke-width="1.51"/><path d="M55,134L68,152L68,134Z" fill="#959da3" stroke="#959da3" stroke-width="1.51"/><path d="M219,19L211,28L229,33Z" fill="#95a5ab" stroke="#95a5ab" stroke-width="1.51"/><path d="M211,59L211,28L192,35Z" fill="#92999f" stroke="#92999f" stroke-width="1.51"/><path d="M68,-4L69,-20L56,1Z" fill="#37606e" stroke="#37606e" stroke-width="1.51"/><path d="M107,-20L90,-24L95,-8Z" fill="#466774" stroke="#466774" stroke-width="1.51"/><path d="M151,157L171,159L170,128Z" fill="#f3f4f5" stroke="#f3f4f5" stroke-width="1.51"/><path d="M151,170L171,159L151,157Z" fill="#ecedee" stroke="#ecedee" stroke-width="1.51"/><path d="M220,116L201,97L198,122Z" fill="#f5f6f6" stroke="#f5f6f6" stroke-width="1.51"/><path d="M220,116L220,94L201,97Z" fill="#f4f5f6" stroke="#f4f5f6" stroke-width="1.51"/><path d="M229,33L211,28L211,59Z" fill="#939ba0" stroke="#939ba0" stroke-width="1.51"/><path d="M211,28L202,10L192,35Z" fill="#94a5ac" stroke="#94a5ac" stroke-width="1.51"/><path d="M147,-9L131,-32L128,1Z" fill="#6f909b" stroke="#6f909b" stroke-width="1.51"/><path d="M107,-20L131,-32L90,-24Z" fill="#537480" stroke="#537480" stroke-width="1.51"/><path d="M172,-19L152,-26L147,-9Z" fill="#88a8b3" stroke="#88a8b3" stroke-width="1.51"/><path d="M172,-19L147,-9L175,-1Z" fill="#91b1bb" stroke="#91b1bb" stroke-width="1.51"/><path d="M118,175L116,152L99,157Z" fill="#b4b6b9" stroke="#b4b6b9" stroke-width="1.51"/><path d="M136,177L151,170L130,156Z" fill="#d5d7d8" stroke="#d5d7d8" stroke-width="1.51"/><path d="M197,-5L172,-19L175,-1Z" fill="#94b4bf" stroke="#94b4bf" stroke-width="1.51"/><path d="M152,-26L131,-32L147,-9Z" fill="#7899a4" stroke="#7899a4" stroke-width="1.51"/><path d="M92,179L118,175L99,157Z" fill="#aaadb0" stroke="#aaadb0" stroke-width="1.51"/><path d="M90,-24L69,-20L95,-8Z" fill="#395a66" stroke="#395a66" stroke-width="1.51"/><path d="M61,-28L69,-20L90,-24Z" fill="#375c6a" stroke="#375c6a" stroke-width="1.51"/><path d="M55,134L51,151L68,152Z" fill="#96a0a7" stroke="#96a0a7" stroke-width="1.51"/><path d="M40,109L33,129L57,115Z" fill="#93a3ab" stroke="#93a3ab" stroke-width="1.51"/><path d="M20,114L33,129L40,109Z" fill="#94a9b0" stroke="#94a9b0" stroke-width="1.51"/><path d="M33,129L51,151L55,134Z" fill="#96a5ab" stroke="#96a5ab" stroke-width="1.51"/><path d="M68,152L77,171L99,157Z" fill="#94979c" stroke="#94979c" stroke-width="1.51"/><path d="M118,175L136,177L130,156Z" fill="#c8cacc" stroke="#c8cacc" stroke-width="1.51"/><path d="M56,1L33,12L60,13Z" fill="#37606e" stroke="#37606e" stroke-width="1.51"/><path d="M17,36L16,54L30,48Z" fill="#38545f" stroke="#38545f" stroke-width="1.51"/><path d="M33,-5L33,12L56,1Z" fill="#346777" stroke="#346777" stroke-width="1.51"/><path d="M30,48L16,54L34,71Z" fill="#455c66" stroke="#455c66" stroke-width="1.51"/><path d="M29,90L20,114L40,109Z" fill="#92a7af" stroke="#92a7af" stroke-width="1.51"/><path d="M17,36L30,48L38,33Z" fill="#385561" stroke="#385561" stroke-width="1.51"/><path d="M202,10L197,-5L179,15Z" fill="#95b0ba" stroke="#95b0ba" stroke-width="1.51"/><path d="M209,-9L197,-5L202,10Z" fill="#96b6c1" stroke="#96b6c1" stroke-width="1.51"/><path d="M214,130L220,116L198,122Z" fill="#f6f7f8" stroke="#f6f7f8" stroke-width="1.51"/><path d="M214,130L198,122L190,136Z" fill="#f7f8f8" stroke="#f7f8f8" stroke-width="1.51"/><path d="M62,168L77,171L68,152Z" fill="#959ca1" stroke="#959ca1" stroke-width="1.51"/><path d="M118,175L92,179L136,177Z" fill="#b9bbbe" stroke="#b9bbbe" stroke-width="1.51"/><path d="M211,149L214,130L190,136Z" fill="#f8f9fa" stroke="#f8f9fa" stroke-width="1.51"/><path d="M9,68L13,88L34,71Z" fill="#657e88" stroke="#657e88" stroke-width="1.51"/><path d="M13,88L20,114L29,90Z" fill="#8da5af" stroke="#8da5af" stroke-width="1.51"/><path d="M28,168L62,168L51,151Z" fill="#98a6ac" stroke="#98a6ac" stroke-width="1.51"/><path d="M16,54L9,68L34,71Z" fill="#516a74" stroke="#516a74" stroke-width="1.51"/><path d="M19,19L17,36L38,33Z" fill="#375c6a" stroke="#375c6a" stroke-width="1.51"/><path d="M211,28L219,19L202,10Z" fill="#95a9b1" stroke="#95a9b1" stroke-width="1.51"/><path d="M229,33L211,59L240,59Z" fill="#939599" stroke="#939599" stroke-width="1.51"/><path d="M220,94L231,88L214,68Z" fill="#d3d4d6" stroke="#d3d4d6" stroke-width="1.51"/><path d="M238,112L231,88L220,94Z" fill="#f1f2f3" stroke="#f1f2f3" stroke-width="1.51"/><path d="M172,175L171,159L151,170Z" fill="#f4f5f6" stroke="#f4f5f6" stroke-width="1.51"/><path d="M195,176L199,151L171,159Z" fill="#f9fafa" stroke="#f9fafa" stroke-width="1.51"/><path d="M171,159L199,151L190,136Z" fill="#f9f9fa" stroke="#f9f9fa" stroke-width="1.51"/><path d="M77,171L92,179L99,157Z" fill="#9b9da1" stroke="#9b9da1" stroke-width="1.51"/><path d="M-6,71L9,68L-6,48Z" fill="#4d6e7a" stroke="#4d6e7a" stroke-width="1.51"/><path d="M77,171L62,168L92,179Z" fill="#95999d" stroke="#95999d" stroke-width="1.51"/><path d="M51,151L62,168L68,152Z" fill="#96a0a6" stroke="#96a0a6" stroke-width="1.51"/><path d="M28,148L51,151L33,129Z" fill="#97a9b0" stroke="#97a9b0" stroke-width="1.51"/><path d="M240,59L211,59L214,68Z" fill="#a9abaf" stroke="#a9abaf" stroke-width="1.51"/><path d="M33,12L19,19L38,33Z" fill="#375f6d" stroke="#375f6d" stroke-width="1.51"/><path d="M-6,48L9,68L16,54Z" fill="#43626e" stroke="#43626e" stroke-width="1.51"/><path d="M16,-11L19,19L33,12Z" fill="#346b7c" stroke="#346b7c" stroke-width="1.51"/><path d="M136,177L172,175L151,170Z" fill="#e6e7e8" stroke="#e6e7e8" stroke-width="1.51"/><path d="M231,88L237,70L214,68Z" fill="#c3c5c7" stroke="#c3c5c7" stroke-width="1.51"/><path d="M69,-20L61,-28L56,1Z" fill="#36616f" stroke="#36616f" stroke-width="1.51"/><path d="M131,-32L61,-28L90,-24Z" fill="#436470" stroke="#436470" stroke-width="1.51"/><path d="M61,-28L33,-5L56,1Z" fill="#356575" stroke="#356575" stroke-width="1.51"/><path d="M199,151L211,149L190,136Z" fill="#f9fafa" stroke="#f9fafa" stroke-width="1.51"/><path d="M231,139L238,112L220,116Z" fill="#f8f9fa" stroke="#f8f9fa" stroke-width="1.51"/><path d="M220,116L238,112L220,94Z" fill="#f5f7f7" stroke="#f5f7f7" stroke-width="1.51"/><path d="M231,88L250,80L237,70Z" fill="#ccced0" stroke="#ccced0" stroke-width="1.51"/><path d="M195,176L211,149L199,151Z" fill="#fafbfb" stroke="#fafbfb" stroke-width="1.51"/><path d="M219,19L209,-9L202,10Z" fill="#96b2bb" stroke="#96b2bb" stroke-width="1.51"/><path d="M197,-5L189,-30L172,-19Z" fill="#95b5bf" stroke="#95b5bf" stroke-width="1.51"/><path d="M172,-19L189,-30L152,-26Z" fill="#93b4be" stroke="#93b4be" stroke-width="1.51"/><path d="M230,-4L209,-9L219,19Z" fill="#98b6c0" stroke="#98b6c0" stroke-width="1.51"/><path d="M237,70L240,59L214,68Z" fill="#b0b2b6" stroke="#b0b2b6" stroke-width="1.51"/><path d="M14,132L28,148L33,129Z" fill="#97adb5" stroke="#97adb5" stroke-width="1.51"/><path d="M14,132L33,129L20,114Z" fill="#96adb5" stroke="#96adb5" stroke-width="1.51"/><path d="M152,-26L189,-30L131,-32Z" fill="#88a8b3" stroke="#88a8b3" stroke-width="1.51"/><path d="M209,-9L189,-30L197,-5Z" fill="#96b6c0" stroke="#96b6c0" stroke-width="1.51"/><path d="M231,139L220,116L214,130Z" fill="#f9fafa" stroke="#f9fafa" stroke-width="1.51"/><path d="M237,70L250,80L240,59Z" fill="#b9bbbe" stroke="#b9bbbe" stroke-width="1.51"/><path d="M1,121L20,114L13,88Z" fill="#93afb9" stroke="#93afb9" stroke-width="1.51"/><path d="M1,121L14,132L20,114Z" fill="#96b1bb" stroke="#96b1bb" stroke-width="1.51"/><path d="M209,-9L216,-24L189,-30Z" fill="#96b6c1" stroke="#96b6c1" stroke-width="1.51"/><path d="M229,33L231,11L219,19Z" fill="#96a9b0" stroke="#96a9b0" stroke-width="1.51"/><path d="M253,33L231,11L229,33Z" fill="#97a7ad" stroke="#97a7ad" stroke-width="1.51"/><path d="M9,68L-6,71L13,88Z" fill="#65848f" stroke="#65848f" stroke-width="1.51"/><path d="M-6,48L16,54L17,36Z" fill="#385864" stroke="#385864" stroke-width="1.51"/><path d="M172,175L195,176L171,159Z" fill="#f8f9f9" stroke="#f8f9f9" stroke-width="1.51"/><path d="M211,149L231,139L214,130Z" fill="#fafbfb" stroke="#fafbfb" stroke-width="1.51"/><path d="M220,180L195,176L172,175Z" fill="#fafafb" stroke="#fafafb" stroke-width="1.51"/><path d="M220,180L172,175L136,177Z" fill="#f8f9f9" stroke="#f8f9f9" stroke-width="1.51"/><path d="M14,132L21,151L28,148Z" fill="#98b0b8" stroke="#98b0b8" stroke-width="1.51"/><path d="M28,148L28,168L51,151Z" fill="#98aab2" stroke="#98aab2" stroke-width="1.51"/><path d="M238,153L231,139L211,149Z" fill="#fcfcfc" stroke="#fcfcfc" stroke-width="1.51"/><path d="M253,98L250,80L231,88Z" fill="#dfe1e2" stroke="#dfe1e2" stroke-width="1.51"/><path d="M240,59L253,33L229,33Z" fill="#949ba1" stroke="#949ba1" stroke-width="1.51"/><path d="M253,98L231,88L238,112Z" fill="#f4f5f6" stroke="#f4f5f6" stroke-width="1.51"/><path d="M-7,29L17,36L19,19Z" fill="#366372" stroke="#366372" stroke-width="1.51"/><path d="M-7,29L-6,48L17,36Z" fill="#37606e" stroke="#37606e" stroke-width="1.51"/><path d="M14,132L-2,158L21,151Z" fill="#99b5be" stroke="#99b5be" stroke-width="1.51"/><path d="M-11,92L1,121L13,88Z" fill="#93b3bd" stroke="#93b3bd" stroke-width="1.51"/><path d="M231,11L230,-4L219,19Z" fill="#98b2bb" stroke="#98b2bb" stroke-width="1.51"/><path d="M252,-7L230,-4L231,11Z" fill="#9ab9c3" stroke="#9ab9c3" stroke-width="1.51"/><path d="M33,-5L16,-11L33,12Z" fill="#336e7f" stroke="#336e7f" stroke-width="1.51"/><path d="M61,-28L39,-32L33,-5Z" fill="#356877" stroke="#356877" stroke-width="1.51"/><path d="M131,-32L39,-32L61,-28Z" fill="#375b68" stroke="#375b68" stroke-width="1.51"/><path d="M17,-20L16,-11L33,-5Z" fill="#327081" stroke="#327081" stroke-width="1.51"/><path d="M252,121L253,98L238,112Z" fill="#f8f9fa" stroke="#f8f9fa" stroke-width="1.51"/><path d="M230,-4L216,-24L209,-9Z" fill="#98b8c2" stroke="#98b8c2" stroke-width="1.51"/><path d="M-6,71L-11,92L13,88Z" fill="#7495a0" stroke="#7495a0" stroke-width="1.51"/><path d="M-25,96L-11,92L-29,81Z" fill="#7fa0ab" stroke="#7fa0ab" stroke-width="1.51"/><path d="M-2,158L28,168L21,151Z" fill="#9ab3bc" stroke="#9ab3bc" stroke-width="1.51"/><path d="M21,151L28,168L28,148Z" fill="#99afb7" stroke="#99afb7" stroke-width="1.51"/><path d="M62,168L9,180L92,179Z" fill="#97a3a9" stroke="#97a3a9" stroke-width="1.51"/><path d="M-6,48L-23,58L-6,71Z" fill="#476875" stroke="#476875" stroke-width="1.51"/><path d="M-12,8L-7,29L19,19Z" fill="#336d7d" stroke="#336d7d" stroke-width="1.51"/><path d="M260,59L240,59L250,80Z" fill="#b3b5b8" stroke="#b3b5b8" stroke-width="1.51"/><path d="M260,59L253,33L240,59Z" fill="#95979b" stroke="#95979b" stroke-width="1.51"/><path d="M16,-11L0,-11L19,19Z" fill="#307486" stroke="#307486" stroke-width="1.51"/><path d="M39,-32L17,-20L33,-5Z" fill="#336d7e" stroke="#336d7e" stroke-width="1.51"/><path d="M269,81L260,59L250,80Z" fill="#c1c3c6" stroke="#c1c3c6" stroke-width="1.51"/><path d="M253,98L269,81L250,80Z" fill="#dbddde" stroke="#dbddde" stroke-width="1.51"/><path d="M231,139L252,121L238,112Z" fill="#fafafa" stroke="#fafafa" stroke-width="1.51"/><path d="M255,139L252,121L231,139Z" fill="#fcfcfc" stroke="#fcfcfc" stroke-width="1.51"/><path d="M1,121L-6,131L14,132Z" fill="#97b6c0" stroke="#97b6c0" stroke-width="1.51"/><path d="M-29,113L-6,131L1,121Z" fill="#96b6c1" stroke="#96b6c1" stroke-width="1.51"/><path d="M220,180L238,153L211,149Z" fill="#fcfcfd" stroke="#fcfcfd" stroke-width="1.51"/><path d="M-23,36L-23,58L-6,48Z" fill="#385a67" stroke="#385a67" stroke-width="1.51"/><path d="M-11,92L-29,113L1,121Z" fill="#94b4bf" stroke="#94b4bf" stroke-width="1.51"/><path d="M-23,36L-6,48L-7,29Z" fill="#36616f" stroke="#36616f" stroke-width="1.51"/><path d="M92,179L220,180L136,177Z" fill="#e2e3e4" stroke="#e2e3e4" stroke-width="1.51"/><path d="M195,176L220,180L211,149Z" fill="#fbfbfc" stroke="#fbfbfc" stroke-width="1.51"/><path d="M230,-4L230,-32L216,-24Z" fill="#98b8c2" stroke="#98b8c2" stroke-width="1.51"/><path d="M253,33L255,10L231,11Z" fill="#98adb4" stroke="#98adb4" stroke-width="1.51"/><path d="M270,20L255,10L253,33Z" fill="#98abb2" stroke="#98abb2" stroke-width="1.51"/><path d="M17,-20L0,-11L16,-11Z" fill="#2f7487" stroke="#2f7487" stroke-width="1.51"/><path d="M0,-30L0,-11L17,-20Z" fill="#2f7789" stroke="#2f7789" stroke-width="1.51"/><path d="M278,101L269,81L253,98Z" fill="#e9eaeb" stroke="#e9eaeb" stroke-width="1.51"/><path d="M260,59L274,36L253,33Z" fill="#959ca0" stroke="#959ca0" stroke-width="1.51"/><path d="M0,-11L-12,8L19,19Z" fill="#307487" stroke="#307487" stroke-width="1.51"/><path d="M-29,81L-11,92L-6,71Z" fill="#70909b" stroke="#70909b" stroke-width="1.51"/><path d="M-23,58L-29,81L-6,71Z" fill="#5b7c88" stroke="#5b7c88" stroke-width="1.51"/><path d="M-21,12L-23,36L-7,29Z" fill="#346878" stroke="#346878" stroke-width="1.51"/><path d="M259,155L255,139L238,153Z" fill="#ffffff" stroke="#ffffff" stroke-width="1.51"/><path d="M238,153L255,139L231,139Z" fill="#fdfdfd" stroke="#fdfdfd" stroke-width="1.51"/><path d="M252,121L268,114L253,98Z" fill="#f9f9fa" stroke="#f9f9fa" stroke-width="1.51"/><path d="M252,-7L230,-32L230,-4Z" fill="#9ab9c3" stroke="#9ab9c3" stroke-width="1.51"/><path d="M216,-24L230,-32L189,-30Z" fill="#97b7c1" stroke="#97b7c1" stroke-width="1.51"/><path d="M189,-30L230,-32L131,-32Z" fill="#94b5bf" stroke="#94b5bf" stroke-width="1.51"/><path d="M-23,36L-29,81L-23,58Z" fill="#466774" stroke="#466774" stroke-width="1.51"/><path d="M-6,131L-2,158L14,132Z" fill="#99b8c2" stroke="#99b8c2" stroke-width="1.51"/><path d="M-23,148L-2,158L-6,131Z" fill="#9abac4" stroke="#9abac4" stroke-width="1.51"/><path d="M255,10L252,-7L231,11Z" fill="#9ab6c0" stroke="#9ab6c0" stroke-width="1.51"/><path d="M270,-2L252,-7L255,10Z" fill="#9abac3" stroke="#9abac3" stroke-width="1.51"/><path d="M255,139L268,114L252,121Z" fill="#fbfbfb" stroke="#fbfbfb" stroke-width="1.51"/><path d="M280,132L278,101L268,114Z" fill="#f9fafa" stroke="#f9fafa" stroke-width="1.51"/><path d="M220,180L242,168L238,153Z" fill="#fdfdfd" stroke="#fdfdfd" stroke-width="1.51"/><path d="M-12,8L-21,12L-7,29Z" fill="#336e7f" stroke="#336e7f" stroke-width="1.51"/><path d="M-23,36L-27,-2L-29,81Z" fill="#37606e" stroke="#37606e" stroke-width="1.51"/><path d="M-27,-2L-21,12L-12,8Z" fill="#2f7587" stroke="#2f7587" stroke-width="1.51"/><path d="M278,101L277,59L269,81Z" fill="#cfd1d3" stroke="#cfd1d3" stroke-width="1.51"/><path d="M269,81L277,59L260,59Z" fill="#b3b5b8" stroke="#b3b5b8" stroke-width="1.51"/><path d="M-25,96L-29,113L-11,92Z" fill="#93b3be" stroke="#93b3be" stroke-width="1.51"/><path d="M-29,81L-29,113L-25,96Z" fill="#8cadb8" stroke="#8cadb8" stroke-width="1.51"/><path d="M277,59L274,36L260,59Z" fill="#97999d" stroke="#97999d" stroke-width="1.51"/><path d="M-2,158L9,180L28,168Z" fill="#9ab5be" stroke="#9ab5be" stroke-width="1.51"/><path d="M28,168L9,180L62,168Z" fill="#98acb3" stroke="#98acb3" stroke-width="1.51"/><path d="M92,179L9,180L220,180Z" fill="#afb1b4" stroke="#afb1b4" stroke-width="1.51"/><path d="M-12,179L9,180L-2,158Z" fill="#9abac4" stroke="#9abac4" stroke-width="1.51"/><path d="M274,36L270,20L253,33Z" fill="#97a5ab" stroke="#97a5ab" stroke-width="1.51"/><path d="M0,-11L-27,-2L-12,8Z" fill="#2d798c" stroke="#2d798c" stroke-width="1.51"/><path d="M39,-32L0,-30L17,-20Z" fill="#317183" stroke="#317183" stroke-width="1.51"/><path d="M268,114L278,101L253,98Z" fill="#f7f8f9" stroke="#f7f8f9" stroke-width="1.51"/><path d="M280,132L268,114L255,139Z" fill="#fbfcfc" stroke="#fbfcfc" stroke-width="1.51"/><path d="M242,168L259,155L238,153Z" fill="#fefefe" stroke="#fefefe" stroke-width="1.51"/><path d="M-32,135L-23,148L-6,131Z" fill="#99b9c3" stroke="#99b9c3" stroke-width="1.51"/><path d="M252,-7L258,-32L230,-32Z" fill="#9abac4" stroke="#9abac4" stroke-width="1.51"/><path d="M270,20L270,-2L255,10Z" fill="#9ab3bc" stroke="#9ab3bc" stroke-width="1.51"/><path d="M274,36L270,-2L270,20Z" fill="#99adb5" stroke="#99adb5" stroke-width="1.51"/><path d="M272,-28L270,-2L274,36Z" fill="#9ab8c2" stroke="#9ab8c2" stroke-width="1.51"/><path d="M-27,-27L-27,-2L0,-11Z" fill="#2d798c" stroke="#2d798c" stroke-width="1.51"/><path d="M-21,12L-27,-2L-23,36Z" fill="#326f80" stroke="#326f80" stroke-width="1.51"/><path d="M-27,-2L-32,135L-29,81Z" fill="#5d7e8a" stroke="#5d7e8a" stroke-width="1.51"/><path d="M-29,81L-32,135L-29,113Z" fill="#94b5bf" stroke="#94b5bf" stroke-width="1.51"/><path d="M-29,113L-32,135L-6,131Z" fill="#97b7c1" stroke="#97b7c1" stroke-width="1.51"/><path d="M278,101L280,132L277,59Z" fill="#f1f2f3" stroke="#f1f2f3" stroke-width="1.51"/><path d="M280,151L280,132L255,139Z" fill="#fdfdfe" stroke="#fdfdfe" stroke-width="1.51"/><path d="M259,155L280,151L255,139Z" fill="#ffffff" stroke="#ffffff" stroke-width="1.51"/><path d="M242,168L260,171L259,155Z" fill="#ffffff" stroke="#ffffff" stroke-width="1.51"/><path d="M220,180L260,171L242,168Z" fill="#fefefe" stroke="#fefefe" stroke-width="1.51"/><path d="M272,-28L258,-32L252,-7Z" fill="#9abac4" stroke="#9abac4" stroke-width="1.51"/><path d="M-32,170L-2,158L-23,148Z" fill="#9abac4" stroke="#9abac4" stroke-width="1.51"/><path d="M-32,170L-12,179L-2,158Z" fill="#9abac4" stroke="#9abac4" stroke-width="1.51"/><path d="M260,171L280,151L259,155Z" fill="#ffffff" stroke="#ffffff" stroke-width="1.51"/><path d="M-27,-2L-27,-27L-32,135Z" fill="#366270" stroke="#366270" stroke-width="1.51"/><path d="M0,-30L-27,-27L0,-11Z" fill="#2d798c" stroke="#2d798c" stroke-width="1.51"/><path d="M270,-2L272,-28L252,-7Z" fill="#9abac4" stroke="#9abac4" stroke-width="1.51"/><path d="M277,59L272,-28L274,36Z" fill="#98aab1" stroke="#98aab1" stroke-width="1.51"/><path d="M-32,135L-32,170L-23,148Z" fill="#9abac4" stroke="#9abac4" stroke-width="1.51"/><path d="M260,171L280,177L280,151Z" fill="#ffffff" stroke="#ffffff" stroke-width="1.51"/><path d="M220,180L280,177L260,171Z" fill="#ffffff" stroke="#ffffff" stroke-width="1.51"/></svg>